<svg xmlns="http://www.w3.org/2000/svg" viewBox="0 0 64 64"><g id="Layer_92" data-name="Layer 92"><path d="M60,24a1,1,0,0,0,1-1V20a1.06,1.06,0,0,0-.5-.87l-28-16a1,1,0,0,0-1,0l-28,16A1,1,0,0,0,3,20s0,3,0,3a1,1,0,0,0,1,1H9V53H6a1,1,0,0,0-1,.68l-2,6A1,1,0,0,0,4,61H60a1,1,0,0,0,1-1.32l-2-6A1,1,0,0,0,58,53H55V24ZM32,5.15,56.23,19H7.77ZM5,21H59v1H5ZM15,53V24H49V53ZM11,24h2V53H11ZM58.61,59H5.39l1.33-4H57.28ZM53,53H51V24h2Z"/><path d="M32,10a3,3,0,0,0,0,6A3,3,0,0,0,32,10Zm0,4a1,1,0,0,1,0-2A1,1,0,0,1,32,14Z"/><path d="M23,44.08a5.62,5.62,0,0,0-5.47,6.45H28.46A5.62,5.62,0,0,0,23,44.08Z"/><path d="M23,43.69A2.35,2.35,0,0,0,23,39,2.35,2.35,0,0,0,23,43.69Z"/><path d="M41,44.08a5.62,5.62,0,0,0-5.47,6.45H46.46A5.62,5.62,0,0,0,41,44.08Z"/><path d="M41,43.69A2.35,2.35,0,0,0,41,39,2.35,2.35,0,0,0,41,43.69Z"/><path d="M37.46,41.55c-.47-7.87-11.64-6.92-10.94,1H37.46Z"/><path d="M32,35.69A2.35,2.35,0,0,0,32,31,2.35,2.35,0,0,0,32,35.69Z"/></g></svg>